# This file uses centimeters as units for non-parametric coordinates.

mtllib Ground 1.mtl
g default
v -5.000000 -0.000000 5.000000
v 5.000000 -0.000000 5.000000
v -5.000000 0.000000 -5.000000
v 5.000000 0.000000 -5.000000
vt -6.312173 -6.360941
vt 7.312173 -6.360941
vt 7.312173 7.360941
vt -6.312173 7.360941
vn 0.000000 1.000000 0.000000
vn 0.000000 1.000000 0.000000
vn 0.000000 1.000000 0.000000
vn 0.000000 1.000000 0.000000
s off
g pPlane1
usemtl initialShadingGroup
f 1/1/1 2/2/2 4/3/3 3/4/4
